<?xml version="1.0" encoding="utf-8"?>
<!-- Generator: Adobe Illustrator 16.0.0, SVG Export Plug-In . SVG Version: 6.00 Build 0)  -->
<!DOCTYPE svg PUBLIC "-//W3C//DTD SVG 1.1//EN" "http://www.w3.org/Graphics/SVG/1.1/DTD/svg11.dtd">
<svg version="1.1" id="Layer_1" xmlns="http://www.w3.org/2000/svg" xmlns:xlink="http://www.w3.org/1999/xlink" x="0px" y="0px"
	 width="16px" height="16px" viewBox="0 0 16 16" enable-background="new 0 0 16 16" xml:space="preserve">
<path fill="#010101" d="M13,2.8H3c-1.7,0-3,1.3-3,3v4.4c0,1.7,1.4,3,3,3H13c1.7,0,3-1.3,3-3V5.8C16,4.1,14.6,2.8,13,2.8z M15.3,11.7
	c-0.1,0.1-0.1,0.1-0.2,0.1h0c-0.1,0-0.2,0-0.2-0.1l-4.2-3.8l-2.4,2C8.1,9.9,8.1,10,8,10c-0.1,0-0.2,0-0.2-0.1l-2.4-2l-4,3.7
	c-0.1,0.1-0.1,0.1-0.2,0.1h0c-0.1,0-0.2,0-0.2-0.1c-0.1-0.1-0.1-0.1-0.1-0.2v0c0-0.1,0-0.2,0.1-0.2l4-3.6l-3.7-3
	C1.1,4.3,1,4.1,1.2,3.9c0.1-0.1,0.3-0.2,0.5,0L2,4.1l6,5l6.1-5l0.3-0.3c0.1-0.1,0.4-0.1,0.5,0c0.1,0.1,0.1,0.4,0,0.5l-3.7,3l4.1,3.8
	c0.1,0.1,0.1,0.1,0.1,0.2v0C15.4,11.5,15.3,11.6,15.3,11.7z"/>
</svg>
