<?xml version="1.0" encoding="utf-8"?>
<!-- Generator: Adobe Illustrator 16.0.0, SVG Export Plug-In . SVG Version: 6.00 Build 0)  -->
<!DOCTYPE svg PUBLIC "-//W3C//DTD SVG 1.1//EN" "http://www.w3.org/Graphics/SVG/1.1/DTD/svg11.dtd">
<svg version="1.1" id="Layer_1" xmlns="http://www.w3.org/2000/svg" xmlns:xlink="http://www.w3.org/1999/xlink" x="0px" y="0px"
	 width="16px" height="16px" viewBox="0 0 16 16" enable-background="new 0 0 16 16" xml:space="preserve">
<path d="M11.5,1.5v-1c0-0.3-0.3-0.5-0.7-0.5c-0.4,0-0.7,0.2-0.7,0.5v0.7H5.4c-1,0-1.9,0.8-1.9,1.9v11c0,1,0.8,1.9,1.9,1.9h5.2
	c1,0,1.9-0.8,1.9-1.9v-11C12.5,2.4,12.1,1.8,11.5,1.5z M5.8,14.9c-0.5,0-0.8-0.4-0.8-0.8c0-0.5,0.4-0.8,0.8-0.8
	c0.5,0,0.8,0.4,0.8,0.8C6.6,14.5,6.2,14.9,5.8,14.9z M5.8,12.9c-0.5,0-0.8-0.4-0.8-0.8c0-0.5,0.4-0.8,0.8-0.8c0.5,0,0.8,0.4,0.8,0.8
	C6.6,12.5,6.2,12.9,5.8,12.9z M5.8,10.9c-0.5,0-0.8-0.4-0.8-0.8c0-0.5,0.4-0.8,0.8-0.8c0.5,0,0.8,0.4,0.8,0.8
	C6.6,10.5,6.2,10.9,5.8,10.9z M8,14.9c-0.5,0-0.8-0.4-0.8-0.8c0-0.5,0.4-0.8,0.8-0.8c0.5,0,0.8,0.4,0.8,0.8
	C8.8,14.5,8.5,14.9,8,14.9z M8,12.9c-0.5,0-0.8-0.4-0.8-0.8c0-0.5,0.4-0.8,0.8-0.8c0.5,0,0.8,0.4,0.8,0.8C8.8,12.5,8.5,12.9,8,12.9z
	 M8,10.9c-0.5,0-0.8-0.4-0.8-0.8c0-0.5,0.4-0.8,0.8-0.8c0.5,0,0.8,0.4,0.8,0.8C8.8,10.5,8.5,10.9,8,10.9z M10.2,14.9
	c-0.5,0-0.8-0.4-0.8-0.8c0-0.5,0.4-0.8,0.8-0.8c0.5,0,0.8,0.4,0.8,0.8C11.1,14.5,10.7,14.9,10.2,14.9z M10.2,12.9
	c-0.5,0-0.8-0.4-0.8-0.8c0-0.5,0.4-0.8,0.8-0.8c0.5,0,0.8,0.4,0.8,0.8C11.1,12.5,10.7,12.9,10.2,12.9z M10.2,10.9
	c-0.5,0-0.8-0.4-0.8-0.8c0-0.5,0.4-0.8,0.8-0.8c0.5,0,0.8,0.4,0.8,0.8C11.1,10.5,10.7,10.9,10.2,10.9z M11.2,6c0,1-0.8,1.9-1.9,1.9
	H6.7c-1,0-1.9-0.8-1.9-1.9V4.2c0-1,0.8-1.9,1.9-1.9h2.6c1,0,1.9,0.8,1.9,1.9V6z"/>
</svg>
