<?xml version="1.0" encoding="utf-8"?>
<!-- Generator: Adobe Illustrator 16.0.0, SVG Export Plug-In . SVG Version: 6.00 Build 0)  -->
<!DOCTYPE svg PUBLIC "-//W3C//DTD SVG 1.1//EN" "http://www.w3.org/Graphics/SVG/1.1/DTD/svg11.dtd">
<svg version="1.1" id="Layer_1" xmlns="http://www.w3.org/2000/svg" xmlns:xlink="http://www.w3.org/1999/xlink" x="0px" y="0px"
	 width="16px" height="16px" viewBox="0 0 16 16" enable-background="new 0 0 16 16" xml:space="preserve">
<g id="XMLID_12_">
	<g>
		<path id="XMLID_31_" d="M14.1,6.7c-0.1-0.1-0.1-0.2-0.3-0.3l0,0c-0.1-0.1-0.3-0.1-0.3-0.1c-0.1-0.8-0.2-1.9-0.6-2.9
			c-0.5-1.3-1.3-2.2-2.4-2.5v2.9H10V0.6C9.8,0.4,9.2,0,8,0c0,0,0,0,0,0C6.7,0,6.2,0.4,6,0.6v3.2H5.5V0.9C4.4,1.2,3.5,2.1,3.1,3.4
			C2.7,4.5,2.6,5.6,2.6,6.3c-0.1,0-0.2,0.1-0.3,0.1C2,6.6,1.9,6.7,1.9,6.9c0,0,0,0,0,0v0.6c0,0,0,0,0,0c0,0,0.3,0.8,0.9,1.1l0,1.1
			c0,1.3,0.6,2.9,1.5,4.1C5.4,15.2,6.7,16,8,16c1.3,0,2.6-0.8,3.7-2.2c0.9-1.2,1.5-2.8,1.5-4.1l0-1.1c0.6-0.4,0.9-1.1,0.9-1.1
			c0,0,0,0,0,0V6.9c0,0,0,0,0,0C14.1,6.8,14.1,6.8,14.1,6.7z M10.2,12.7C10,13.3,9,14.4,7.9,14.4c-1,0-2-1.1-2.2-1.7
			C5.5,11.6,8,11.6,8,11.6S10.4,11.6,10.2,12.7z M12.6,9.7c0,0.5-0.1,1-0.3,1.6c0,0.1-0.1,0.1-0.1,0.2c-0.3,0.4-1.1,1.4-1.6,1.9
			c0-0.6,0-1.5-0.1-1.6c-0.2-0.4-0.8-0.7-2.6-0.7s-2.4,0.3-2.6,0.7c-0.1,0.2-0.2,1-0.2,1.6c-0.4-0.4-0.9-1-1.4-1.5
			c-0.3-0.7-0.5-1.5-0.5-2.2l0-0.9l0-0.5h9.2l0,0.5L12.6,9.7z"/>
	</g>
</g>
</svg>
