<?xml version="1.0" encoding="utf-8"?>
<!-- Generator: Adobe Illustrator 16.0.0, SVG Export Plug-In . SVG Version: 6.00 Build 0)  -->
<!DOCTYPE svg PUBLIC "-//W3C//DTD SVG 1.1//EN" "http://www.w3.org/Graphics/SVG/1.1/DTD/svg11.dtd">
<svg version="1.1" id="Layer_1" xmlns="http://www.w3.org/2000/svg" xmlns:xlink="http://www.w3.org/1999/xlink" x="0px" y="0px"
	 width="16px" height="16px" viewBox="0 0 16 16" enable-background="new 0 0 16 16" xml:space="preserve">
<g id="Lozenge_8_">
	<g>
		<path fill="#010101" d="M15.8,4.8c0,0-0.2-1.1-0.6-1.6c-0.6-0.6-1.3-0.6-1.6-0.7C11.4,2.4,8,2.4,8,2.4h0c0,0-3.4,0-5.6,0.2
			c-0.3,0-1,0-1.6,0.7C0.3,3.7,0.2,4.8,0.2,4.8S0,6.1,0,7.4v1.2c0,1.3,0.2,2.6,0.2,2.6s0.2,1.1,0.6,1.6c0.6,0.6,1.4,0.6,1.8,0.7
			C3.8,13.6,8,13.6,8,13.6s3.4,0,5.6-0.2c0.3,0,1,0,1.6-0.7c0.5-0.5,0.6-1.6,0.6-1.6S16,9.9,16,8.6V7.4C16,6.1,15.8,4.8,15.8,4.8z
			 M6.3,10.1l0-4.5l4.3,2.3L6.3,10.1z"/>
	</g>
</g>
</svg>
