<?xml version="1.0" encoding="utf-8"?>
<!-- Generator: Adobe Illustrator 16.0.0, SVG Export Plug-In . SVG Version: 6.00 Build 0)  -->
<!DOCTYPE svg PUBLIC "-//W3C//DTD SVG 1.1//EN" "http://www.w3.org/Graphics/SVG/1.1/DTD/svg11.dtd">
<svg version="1.1" id="Layer_1" xmlns="http://www.w3.org/2000/svg" xmlns:xlink="http://www.w3.org/1999/xlink" x="0px" y="0px"
	 width="16px" height="16px" viewBox="0 0 16 16" enable-background="new 0 0 16 16" xml:space="preserve">
<path fill-rule="evenodd" clip-rule="evenodd" fill="#010101" d="M7,7c0.7,0,1.2,0.5,1.2,1.2c0,0.7-0.5,1.2-1.2,1.2
	c-0.7,0-1.2-0.5-1.2-1.2C5.8,7.5,6.3,7,7,7L7,7z M14.5,4.7l-0.3,0.4l0,1.4c0,0.1,0.1,0.2,0.2,0.2c0.2,0,0.4,0.2,0.4,0.4
	c0,0.2-0.2,0.4-0.4,0.4c-0.2,0-0.4-0.2-0.4-0.4c0,0,0,0,0,0c0-0.1-0.1-0.2-0.2-0.2c-0.1,0-0.2,0.1-0.2,0.2c0,0,0,0,0,0
	c0,0.4,0.3,0.7,0.7,0.7c0.4,0,0.7-0.3,0.7-0.7c0-0.3-0.3-0.6-0.6-0.7L14.5,4.7L14.5,4.7L14.5,4.7z M13.6,4.7l0.2,0.2l0.3-0.3
	c0.1-0.1,0.1-0.2,0-0.2l0,0c-0.1-0.1-0.2-0.1-0.2,0L13.6,4.7L13.6,4.7z M1.6,9.9h12.9c0.1-0.3,0.3-0.7,0.5-1.1
	c0.2-0.5-0.1-0.5-0.7-0.5H8.5C8.4,9.1,7.8,9.7,7,9.7C6.2,9.7,5.5,9,5.5,8.2c0,0,0,0,0,0C5,7.8,4.8,7.3,4.6,6.9
	C4.5,6.6,4.5,6.6,4.2,6.6H0.5c-0.3,0-0.4,0.1-0.3,0.3c0.4,0.9,0.8,1.9,1.2,2.8C1.5,9.8,1.5,9.9,1.6,9.9L1.6,9.9z M7,5.2
	c0.2,0,0.4,0.2,0.4,0.4c0,0.2-0.2,0.4-0.4,0.4c-0.2,0-0.4-0.2-0.4-0.4C6.6,5.3,6.8,5.2,7,5.2L7,5.2z M14.6,10.6h0.6
	c0.1,0,0.2,0.1,0.2,0.2l0,0c0,0.1-0.1,0.2-0.2,0.2h-1.8c-0.1,0-0.2-0.1-0.2-0.2l0,0c0-0.1,0.1-0.2,0.2-0.2h0.8H14.6L14.6,10.6z
	 M2,10.6h10.6c0.1,0,0.2,0.1,0.2,0.2l0,0c0,0.1-0.1,0.2-0.2,0.2H1c-0.1,0-0.2-0.1-0.2-0.2l0,0c0-0.1,0.1-0.2,0.2-0.2h0.6H2L2,10.6z
	 M9.6,8h0.6h0.7l-0.6-0.6L9.6,8L9.6,8z M12.7,5.6h0.8L13.1,6L12.7,5.6L12.7,5.6z M13.7,5.2h-0.9l0.4-0.3c0.1,0,0.1-0.1,0.2,0
	C13.5,5,13.6,5.1,13.7,5.2C13.7,5.2,13.7,5.2,13.7,5.2L13.7,5.2z M11.7,6.5h1L12.2,7L11.7,6.5L11.7,6.5z M12.8,6.1h-1l0.5-0.4
	L12.8,6.1L12.8,6.1z M10.7,7.4h1.1L11.4,8L10.7,7.4L10.7,7.4z M11.8,7.1l-1.1,0l0.6-0.5L11.8,7.1L11.8,7.1z M4.9,6.9
	c0.2,0.4,0.3,0.7,0.6,0.9C5.7,7.1,6.3,6.6,7,6.6c0.8,0,1.5,0.6,1.5,1.4h0.5V4.7c0-0.1-0.1-0.2-0.2-0.2H5.1C5,4.5,4.9,4.6,4.9,4.7
	V6.9L4.9,6.9z M7,4.8c0.4,0,0.7,0.3,0.7,0.7C7.7,6,7.4,6.3,7,6.3C6.6,6.3,6.3,6,6.3,5.6C6.3,5.2,6.6,4.8,7,4.8L7,4.8z M6.8,11.6
	c0.1,0,0.2-0.1,0.2-0.2c0-0.1-0.1-0.2-0.2-0.2s-0.2,0.1-0.2,0.2C6.6,11.6,6.7,11.6,6.8,11.6L6.8,11.6z M6.1,11.6
	c0.1,0,0.2-0.1,0.2-0.2c0-0.1-0.1-0.2-0.2-0.2c-0.1,0-0.2,0.1-0.2,0.2C5.9,11.6,6,11.6,6.1,11.6L6.1,11.6z M0.2,11.3h5.3
	c0.1,0,0.2,0.1,0.2,0.2l0,0c0,0.1-0.1,0.2-0.2,0.2H0.2c-0.1,0-0.2-0.1-0.2-0.2l0,0C0,11.4,0.1,11.3,0.2,11.3L0.2,11.3z M12.7,11.6
	c0.1,0,0.2-0.1,0.2-0.2c0-0.1-0.1-0.2-0.2-0.2c-0.1,0-0.2,0.1-0.2,0.2C12.6,11.6,12.6,11.6,12.7,11.6L12.7,11.6z M10.3,11.3h1.8
	c0.1,0,0.2,0.1,0.2,0.2l0,0c0,0.1-0.1,0.2-0.2,0.2h-1.8c-0.1,0-0.2-0.1-0.2-0.2l0,0C10.1,11.4,10.2,11.3,10.3,11.3L10.3,11.3z
	 M15.8,11c0.1,0,0.2-0.1,0.2-0.2c0-0.1-0.1-0.2-0.2-0.2c-0.1,0-0.2,0.1-0.2,0.2C15.7,10.9,15.7,11,15.8,11L15.8,11z M7,7.6
	c0.3,0,0.6,0.3,0.6,0.6c0,0.3-0.3,0.6-0.6,0.6c-0.3,0-0.6-0.3-0.6-0.6C6.4,7.9,6.7,7.6,7,7.6L7,7.6z"/>
</svg>
