<?xml version="1.0" encoding="utf-8"?>
<!-- Generator: Adobe Illustrator 16.0.0, SVG Export Plug-In . SVG Version: 6.00 Build 0)  -->
<!DOCTYPE svg PUBLIC "-//W3C//DTD SVG 1.1//EN" "http://www.w3.org/Graphics/SVG/1.1/DTD/svg11.dtd">
<svg version="1.1" id="Layer_1" xmlns="http://www.w3.org/2000/svg" xmlns:xlink="http://www.w3.org/1999/xlink" x="0px" y="0px"
	 width="16px" height="16px" viewBox="0 0 16 16" enable-background="new 0 0 16 16" xml:space="preserve">
<g>
	<path fill-rule="evenodd" clip-rule="evenodd" fill="#010101" d="M5.1,7.3V9H8c-0.1,0.7-0.9,2.2-2.9,2.2c-1.7,0-3.2-1.4-3.2-3.2
		c0-1.8,1.4-3.2,3.2-3.2c1,0,1.7,0.4,2,0.8l1.4-1.3c-0.9-0.8-2-1.3-3.4-1.3C2.3,2.9,0,5.2,0,8c0,2.8,2.3,5.1,5.1,5.1
		c2.9,0,4.9-2.1,4.9-5c0-0.3,0-0.6-0.1-0.8H5.1z"/>
	<polygon fill-rule="evenodd" clip-rule="evenodd" fill="#010101" points="16,7.3 14.5,7.3 14.5,5.8 13.1,5.8 13.1,7.3 11.6,7.3 
		11.6,8.7 13.1,8.7 13.1,10.2 14.5,10.2 14.5,8.7 16,8.7 	"/>
</g>
</svg>
