<?xml version="1.0" encoding="utf-8"?>
<!-- Generator: Adobe Illustrator 16.0.0, SVG Export Plug-In . SVG Version: 6.00 Build 0)  -->
<!DOCTYPE svg PUBLIC "-//W3C//DTD SVG 1.1//EN" "http://www.w3.org/Graphics/SVG/1.1/DTD/svg11.dtd">
<svg version="1.1" id="Layer_1" xmlns="http://www.w3.org/2000/svg" xmlns:xlink="http://www.w3.org/1999/xlink" x="0px" y="0px"
	 width="16px" height="16px" viewBox="0 0 16 16" enable-background="new 0 0 16 16" xml:space="preserve">
<g>
	<path d="M12.7,9.5c-0.5-0.3-1.9-1.5-3.4-2.7C8.8,6.4,8.4,6.1,8.4,6C8.3,6,8.2,6,8.2,6C8,6,7.7,6.1,7.5,6.5C7.3,7.3,6.7,7.7,6.2,7.7
		c0,0-0.1,0-0.1,0c-0.2,0-0.3-0.1-0.5-0.3c-0.3-0.5-0.2-1.3,0-2C5.8,5.1,6,4.8,6.2,4.6c-0.8,0-1.8-0.1-2.5-0.1
		C3.6,5.2,3.2,6.3,3,6.9C2.8,7.3,2.6,7.8,2.5,8.1c0.2,0.4,0.6,0.8,1,1.2c0.1-0.1,0.3-0.2,0.5-0.2c0.2,0,0.4,0.1,0.6,0.2
		c0.2,0.1,0.3,0.4,0.2,0.7c0.1-0.1,0.5-0.3,0.9-0.3c0.2,0,0.4,0.1,0.5,0.2c0.2,0.2,0.2,0.4,0.2,0.6c0.1-0.1,0.3-0.1,0.4-0.1
		c0.2,0,0.3,0.1,0.5,0.2c0.1,0.1,0.2,0.3,0.1,0.5c0,0.1,0,0.2-0.1,0.3c0,0,0.1,0,0.2,0c0,0,0,0,0,0c0.2,0,0.5,0.3,0.8,0.7
		c0,0,0.1,0.1,0.1,0.2c0.2,0,0.4,0.1,0.6,0.1c0.1,0,0.2,0,0.3,0c-0.4-0.2-0.9-0.6-1.5-1.1c-0.1-0.1-0.1-0.2,0-0.2s0.2-0.1,0.2,0
		c0.8,0.7,1.5,1.1,1.8,1.3c0.1,0,0.1,0,0.2,0c0.4,0,0.7-0.1,0.8-0.3c-0.4-0.2-1.2-0.8-2.1-1.7c-0.1-0.1-0.1-0.2,0-0.2
		c0.1-0.1,0.2-0.1,0.2,0c1,1,1.9,1.5,2.2,1.7c0,0,0.1,0,0.1,0c0.4,0,0.7-0.2,0.8-0.6c-0.5-0.2-1.4-0.8-2.6-2c-0.1-0.1-0.1-0.2,0-0.2
		c0.1-0.1,0.2-0.1,0.2,0c1.1,1.1,2.1,1.7,2.5,1.9c0,0,0,0,0,0c0,0,0.6-0.2,0.7-0.5C12.8,9.9,12.8,9.7,12.7,9.5z"/>
	<path d="M12.8,6.7c-0.4-0.7-0.7-1.5-0.9-2c-0.3-0.2-0.7-0.4-1-0.4c0,0,0,0,0,0c0,0-0.1,0-0.1,0C9.9,4.3,9.4,4.1,9.1,4
		C9.1,3.9,9,3.9,8.8,3.9C8.5,3.9,8,4.1,7.5,4.3C7.4,4.4,7.2,4.5,7,4.6c-0.5,0.2-0.8,0.4-1,1C5.8,6.3,5.7,7,5.9,7.3
		C6,7.3,6,7.4,6.1,7.4c0.4,0,0.8-0.3,1.1-1c0.2-0.5,0.6-0.8,1-0.8c0.1,0,0.3,0,0.4,0.1c0.1,0.1,0.4,0.3,0.9,0.8
		c1,0.9,3.1,2.6,3.4,2.7c0,0,0.1,0,0.1,0c0.3,0,0.7-0.4,0.8-0.8C13.5,8,13.1,7.3,12.8,6.7z"/>
	<path d="M13.9,3.5c-0.4,0.2-1.4,0.7-1.7,0.9c0.1,0.3,0.4,1.1,0.9,2.1c0.6,1.3,1.1,1.9,1.2,2c0.2,0,0.7-0.3,1.5-0.9
		c0.1,0,0.1-0.1,0.1-0.1c-0.1-0.2-0.4-0.8-0.7-1.4C14.8,5.3,14.1,4.2,13.9,3.5z"/>
	<path d="M2.7,6.5c0.6-1.7,0.6-2.1,0.6-2.2C3.1,4.2,2.2,3.9,1.5,3.7c0,1-0.7,2.6-1.2,3.6C0.2,7.5,0.1,7.7,0,7.9
		C0.4,8,1.6,8.4,1.9,8.5C2.1,8.2,2.4,7.4,2.7,6.5z"/>
	<path d="M3.9,10.2c0,0,0.1,0,0.1,0c0.2,0,0.3-0.2,0.4-0.3c0-0.2,0-0.3-0.1-0.3C4.2,9.5,4.1,9.4,3.9,9.4c-0.2,0-0.3,0.2-0.3,0.3
		C3.6,9.9,3.7,10.1,3.9,10.2z"/>
	<path d="M5.5,11C5.6,11,5.6,11,5.5,11c0,0,0.6-0.6,0.3-1C5.8,9.9,5.7,9.9,5.6,9.9c-0.2,0-0.5,0.2-0.7,0.3c-0.2,0.1-0.3,0.3-0.3,0.5
		c0,0.1,0.1,0.3,0.2,0.4c0.1,0.1,0.2,0.1,0.3,0.1C5.3,11.3,5.4,11.1,5.5,11z"/>
	<path d="M6.9,10.9c0-0.1,0-0.2,0-0.2c-0.1-0.1-0.1-0.1-0.2-0.1c-0.4,0-0.8,0.8-0.9,1c0,0,0,0.1,0.1,0.1c0.1,0.1,0.2,0.2,0.4,0.2
		c0.1,0,0.1,0,0.1,0C6.6,11.6,6.9,11.2,6.9,10.9z"/>
	<path d="M8.1,12.4c0-0.1-0.1-0.1-0.2-0.2c-0.1-0.2-0.4-0.6-0.5-0.6c-0.3,0-0.3,0.1-0.3,0.2C7,12,7.1,12.3,7.3,12.4c0,0,0.1,0,0.3,0
		C7.7,12.5,7.9,12.4,8.1,12.4z"/>
</g>
</svg>
