<?xml version="1.0" encoding="utf-8"?>
<!-- Generator: Adobe Illustrator 16.0.0, SVG Export Plug-In . SVG Version: 6.00 Build 0)  -->
<!DOCTYPE svg PUBLIC "-//W3C//DTD SVG 1.1//EN" "http://www.w3.org/Graphics/SVG/1.1/DTD/svg11.dtd">
<svg version="1.1" id="Layer_1" xmlns="http://www.w3.org/2000/svg" xmlns:xlink="http://www.w3.org/1999/xlink" x="0px" y="0px"
	 width="16px" height="16px" viewBox="0 0 16 16" enable-background="new 0 0 16 16" xml:space="preserve">
<g>
	<path fill="#010101" d="M10.7,10.7l0-1.4c0,0-1.9,2.3-1.9,3.3c0,0.9,1.9,3.3,1.9,3.3l0-1.4h1.9c0.5,0,0.9-0.2,1.1-0.6l2.3-4
		c-0.3,0.6-1,1-1.7,0.9H10.7L10.7,10.7z"/>
	<path fill="#010101" d="M11.7,1.3c-0.3-0.5-0.8-0.7-1.3-0.7s-1,0.3-1.3,0.8c0,0-0.4,0.7-0.9,1.5l0.9,1.5L7.9,5.1c0,0,3,0.5,3.8,0
		c0.8-0.5,1.9-3.3,1.9-3.3l-1.2,0.7C12.4,2.5,11.9,1.7,11.7,1.3z"/>
	<path fill="#010101" d="M15.7,9.5c0.3-0.5,0.3-1,0-1.5c0,0-0.9-1.6-1.7-2.9L10.8,7l1.9,3.3c0.9,0,1.7,0,1.7,0
		C14.9,10.3,15.4,10,15.7,9.5z"/>
	<path fill="#010101" d="M4.4,8.8l1.2,0.7c0,0-1.1-2.8-1.9-3.3C3,5.7,0,6.2,0,6.2l1.2,0.7L0.3,8.5C0,8.9,0,9.4,0.3,9.8l2.3,4
		c-0.3-0.6-0.3-1.3,0-1.9L4.4,8.8z"/>
	<path fill="#010101" d="M2.9,13.7c0.3,0.5,0.8,0.7,1.3,0.7c0,0,1.9,0,3.4,0v-3.7H3.8c-0.4,0.8-0.9,1.5-0.9,1.5
		C2.6,12.7,2.6,13.2,2.9,13.7z"/>
	<path fill="#010101" d="M2.7,4.3l3.2,1.9c0,0,2.4-4.2,2.9-5c0.3-0.6,0.9-0.9,1.6-0.9H5.8c-0.5,0-0.9,0.3-1.1,0.7
		C4.2,1.5,2.7,4.3,2.7,4.3z"/>
</g>
</svg>
