<?xml version="1.0" encoding="utf-8"?>
<!-- Generator: Adobe Illustrator 16.0.0, SVG Export Plug-In . SVG Version: 6.00 Build 0)  -->
<!DOCTYPE svg PUBLIC "-//W3C//DTD SVG 1.1//EN" "http://www.w3.org/Graphics/SVG/1.1/DTD/svg11.dtd">
<svg version="1.1" id="Layer_1" xmlns="http://www.w3.org/2000/svg" xmlns:xlink="http://www.w3.org/1999/xlink" x="0px" y="0px"
	 width="16px" height="16px" viewBox="0 0 16 16" enable-background="new 0 0 16 16" xml:space="preserve">
<g>
	<g>
		<path d="M7.4,0c1.1-0.1,2.2,0,3.2,0.4c1.5,0.5,2.9,1.5,3.9,2.8c0.5,0.7,0.9,1.4,1.2,2.2c0.6,1.7,0.6,3.7,0,5.4
			c-0.5,1.3-1.3,2.4-2.3,3.3c-1.1,0.9-2.4,1.6-3.9,1.8c-0.9,0.2-1.9,0.2-2.8,0c-1.6-0.3-3.1-1.1-4.3-2.3C1,12.3,0.2,10.5,0,8.6
			C0,7.7,0,6.8,0.3,5.9c0.4-1.3,1.1-2.6,2.1-3.6C3.7,1,5.5,0.2,7.4,0z M7.5,1.8C6.3,1.9,5.1,2.3,4.1,3.1C2.9,4,2.1,5.4,1.8,6.9
			C1.6,8,1.8,9.3,2.2,10.3c0.6,1.4,1.6,2.6,3,3.2c0.7,0.4,1.6,0.6,2.4,0.7c1,0.1,2-0.1,2.9-0.5c1.4-0.6,2.5-1.7,3.1-3
			C14,9.9,14.2,9,14.3,8.1c0-1-0.2-1.9-0.6-2.8c-0.6-1.3-1.7-2.4-3.1-3C9.6,1.9,8.5,1.7,7.5,1.8z"/>
	</g>
	<path d="M5.2,5.6c0.2,0,0.3,0.1,0.4,0.2C5.8,6,5.8,6.2,5.9,6.5C6,7,6,7.6,5.8,8.1C5.8,8.3,5.7,8.5,5.4,8.7C5.3,8.8,5.1,8.8,5,8.7
		C4.8,8.5,4.7,8.3,4.6,8.1c-0.1-0.3-0.1-0.7-0.1-1c0-0.3,0.1-0.7,0.2-1C4.8,5.8,4.9,5.6,5.2,5.6z"/>
	<path d="M10.7,5.6c0.1-0.1,0.3,0,0.4,0.1c0.2,0.2,0.3,0.4,0.3,0.7c0.1,0.5,0.1,1,0,1.4c-0.1,0.3-0.2,0.6-0.4,0.8
		c-0.1,0.1-0.3,0.2-0.5,0.1c-0.2-0.1-0.3-0.3-0.4-0.5c-0.2-0.4-0.2-0.8-0.2-1.3c0-0.4,0.1-0.7,0.3-1.1C10.5,5.8,10.6,5.6,10.7,5.6z"
		/>
	<path d="M3.1,9.5c0.3,0,0.5,0,0.7,0c0.4,0.7,0.9,1.2,1.6,1.6c0.6,0.4,1.4,0.7,2.1,0.8c1,0.1,2-0.1,2.9-0.5c0.8-0.4,1.5-1.1,2-1.9
		c0.3,0,0.5,0,0.8,0c-0.3,0.7-0.8,1.3-1.4,1.8c-0.6,0.5-1.3,0.9-2,1.1c-0.9,0.3-2,0.3-2.9,0c-0.7-0.2-1.4-0.5-2-1
		C4,10.9,3.4,10.3,3.1,9.5z"/>
</g>
</svg>
