<?xml version="1.0" encoding="utf-8"?>
<!-- Generator: Adobe Illustrator 16.0.0, SVG Export Plug-In . SVG Version: 6.00 Build 0)  -->
<!DOCTYPE svg PUBLIC "-//W3C//DTD SVG 1.1//EN" "http://www.w3.org/Graphics/SVG/1.1/DTD/svg11.dtd">
<svg version="1.1" id="Layer_1" xmlns="http://www.w3.org/2000/svg" xmlns:xlink="http://www.w3.org/1999/xlink" x="0px" y="0px"
	 width="16px" height="16px" viewBox="0 0 16 16" enable-background="new 0 0 16 16" xml:space="preserve">
<g>
	<path fill-rule="evenodd" clip-rule="evenodd" d="M11.3,6.1l2.5-1.7c0,0,0.9,0.6,2.3,0.2C15.1,5.6,12.6,7.3,11.3,6.1z"/>
	<path fill-rule="evenodd" clip-rule="evenodd" d="M13.6,2.5L5.8,9c-0.4,0.3,0,0.8,0.4,0.5l8.3-5.9C15.2,3.2,14.2,2,13.6,2.5z M6,9
		l7.5-6.2c0,0,0,0.2,0.1,0.4L6,9z"/>
	<path d="M6,9.7c-0.2,0-0.4-0.2-0.4-0.4c0-0.2,0.1-0.3,0.2-0.4l0.6-0.5C6.3,8.3,6.1,8.3,5.9,8.3C5.4,8.3,5,8.7,5,9.2
		c0,0.5,0.4,0.9,0.9,0.9c0.5,0,0.9-0.4,0.9-0.9c0,0,0,0,0,0L6.3,9.6C6.2,9.6,6.1,9.7,6,9.7z"/>
	<path d="M5.9,6.8L5.9,6.8c-1.3,0-2.4,1.1-2.4,2.4c0,1.3,1.1,2.4,2.4,2.4l0,0c1.3,0,2.4-1.1,2.4-2.4c0-0.3-0.1-0.6-0.2-0.9L7.6,8.7
		c0,0.2,0.1,0.3,0.1,0.5c0,0.9-0.8,1.7-1.7,1.7l0,0c-0.9,0-1.7-0.8-1.7-1.7S5,7.5,5.9,7.5l0,0c0.4,0,0.8,0.2,1.1,0.4l0.5-0.5
		C7.2,7,6.6,6.8,5.9,6.8z"/>
	<path fill-rule="evenodd" clip-rule="evenodd" d="M13.1,0.9c-1.2,0.6-3.5,2.5-2.7,4.2l2.4-2C12.8,3.1,12.4,2.1,13.1,0.9z"/>
	<path d="M11.1,6.2l-0.8,0.5c0.4,0.7,0.6,1.5,0.6,2.4c0,2.8-2.2,5-5,5l0,0c-2.8,0-5-2.2-5-5s2.2-5,5-5l0,0c1.4,0,2.7,0.6,3.7,1.6
		l0.7-0.6C9.2,4,7.7,3.2,5.9,3.2l0,0C2.7,3.2,0,5.9,0,9.2c0,3.3,2.7,5.9,5.9,5.9l0,0c3.3,0,5.9-2.7,5.9-5.9
		C11.9,8.1,11.6,7.1,11.1,6.2z"/>
	<path d="M9.6,7.3L8.9,7.7c0.2,0.4,0.3,0.9,0.3,1.5c0,1.8-1.5,3.3-3.3,3.3l0,0c-1.8,0-3.3-1.5-3.3-3.3c0-1.8,1.5-3.3,3.3-3.3l0,0
		c0.9,0,1.8,0.4,2.4,1l0.6-0.5C8.2,5.5,7.1,5,5.9,5l0,0C3.6,5,1.8,6.9,1.8,9.2s1.9,4.2,4.2,4.2l0,0c2.3,0,4.2-1.9,4.2-4.2
		C10.1,8.5,9.9,7.8,9.6,7.3z"/>
</g>
</svg>
