<?xml version="1.0" encoding="utf-8"?>
<!-- Generator: Adobe Illustrator 16.0.0, SVG Export Plug-In . SVG Version: 6.00 Build 0)  -->
<!DOCTYPE svg PUBLIC "-//W3C//DTD SVG 1.1//EN" "http://www.w3.org/Graphics/SVG/1.1/DTD/svg11.dtd">
<svg version="1.1" id="Layer_1" xmlns="http://www.w3.org/2000/svg" xmlns:xlink="http://www.w3.org/1999/xlink" x="0px" y="0px"
	 width="16px" height="16px" viewBox="0 0 16 16" enable-background="new 0 0 16 16" xml:space="preserve">
<g>
	<path fill="#010101" d="M1.5,4.8C3,3.4,4.2,2.4,7.6,4.3c1.6,0.9,2.9,1.2,4,1.2c1.9,0,3.1-1,4.1-2c0.4-0.3,0.4-0.9,0.1-1.3
		c-0.3-0.4-0.9-0.4-1.3-0.1C13,3.5,11.8,4.5,8.4,2.7C4,0.2,2,2,0.3,3.4c-0.4,0.3-0.4,0.9-0.1,1.3C0.5,5,1.1,5.1,1.5,4.8z"/>
	<path fill="#010101" d="M14.5,11.2c-1.6,1.3-2.8,2.4-6.1,0.5C4,9.3,2,11,0.3,12.5c-0.4,0.3-0.4,0.9-0.1,1.3
		c0.3,0.4,0.9,0.4,1.3,0.1c1.6-1.3,2.8-2.4,6.1-0.5c1.6,0.9,2.9,1.2,4,1.2c1.9,0,3.1-1,4.1-1.9c0.4-0.3,0.4-0.9,0.1-1.3
		C15.5,11,14.9,10.9,14.5,11.2z"/>
	<path fill="#010101" d="M14.5,6.7C13,8,11.8,9.1,8.4,7.2C4,4.7,2,6.5,0.3,7.9c-0.4,0.3-0.4,0.9-0.1,1.3c0.3,0.4,0.9,0.4,1.3,0.1
		C3,8,4.2,6.9,7.6,8.8c1.6,0.9,2.9,1.2,4,1.2c1.9,0,3.1-1,4.1-2c0.4-0.3,0.4-0.9,0.1-1.3C15.5,6.4,14.9,6.4,14.5,6.7z"/>
</g>
</svg>
